0
SECTION
2
HEADER
9
$ACADVER
1
AC1009
9
$INSBASE
10
0.0
20
0.0
30
0.0
9
$EXTMIN
10
0.0
20
0.0
9
$EXTMAX
10
500.0
20
200.0
0
ENDSEC
0
SECTION
2
TABLES
0
TABLE
2
LAYER
70
1
0
LAYER
2
0
62
7
6
CONTINUOUS
0
ENDTAB
0
TABLE
2
LTYPE
70
1
0
LTYPE
2
CONTINUOUS
70
0
3
Solid line
72
65
73
0
40
0.0
0
ENDTAB
0
ENDSEC
0
SECTION
2
ENTITIES
0
POLYLINE
8
0
66
1
70
1
10
0.0
20
0.0
30
0.0
0
VERTEX
10
0.000
20
13.363
30
0.0
0
VERTEX
10
4.169
20
13.769
30
0.0
0
VERTEX
10
8.338
20
14.187
30
0.0
0
VERTEX
10
12.507
20
14.618
30
0.0
0
VERTEX
10
16.675
20
15.062
30
0.0
0
VERTEX
10
20.844
20
15.519
30
0.0
0
VERTEX
10
25.013
20
15.990
30
0.0
0
VERTEX
10
29.182
20
16.476
30
0.0
0
VERTEX
10
33.351
20
16.976
30
0.0
0
VERTEX
10
37.520
20
17.492
30
0.0
0
VERTEX
10
41.688
20
18.023
30
0.0
0
VERTEX
10
45.857
20
18.570
30
0.0
0
VERTEX
10
50.026
20
19.134
30
0.0
0
VERTEX
10
54.195
20
19.715
30
0.0
0
VERTEX
10
58.364
20
20.313
30
0.0
0
VERTEX
10
62.533
20
20.930
30
0.0
0
VERTEX
10
66.701
20
21.566
30
0.0
0
VERTEX
10
70.870
20
22.220
30
0.0
0
VERTEX
10
75.039
20
22.895
30
0.0
0
VERTEX
10
79.208
20
23.590
30
0.0
0
VERTEX
10
83.377
20
24.306
30
0.0
0
VERTEX
10
87.546
20
25.044
30
0.0
0
VERTEX
10
91.715
20
25.805
30
0.0
0
VERTEX
10
95.883
20
26.588
30
0.0
0
VERTEX
10
100.052
20
27.396
30
0.0
0
VERTEX
10
104.221
20
28.228
30
0.0
0
VERTEX
10
108.390
20
29.085
30
0.0
0
VERTEX
10
112.559
20
29.968
30
0.0
0
VERTEX
10
116.728
20
30.878
30
0.0
0
VERTEX
10
120.896
20
31.815
30
0.0
0
VERTEX
10
125.065
20
32.781
30
0.0
0
VERTEX
10
129.234
20
33.776
30
0.0
0
VERTEX
10
133.403
20
34.802
30
0.0
0
VERTEX
10
137.572
20
35.859
30
0.0
0
VERTEX
10
141.741
20
36.948
30
0.0
0
VERTEX
10
145.909
20
38.069
30
0.0
0
VERTEX
10
150.078
20
39.225
30
0.0
0
VERTEX
10
154.247
20
40.416
30
0.0
0
VERTEX
10
158.416
20
41.643
30
0.0
0
VERTEX
10
162.585
20
42.908
30
0.0
0
VERTEX
10
166.754
20
44.211
30
0.0
0
VERTEX
10
170.922
20
45.553
30
0.0
0
VERTEX
10
175.091
20
46.936
30
0.0
0
VERTEX
10
179.260
20
48.361
30
0.0
0
VERTEX
10
183.429
20
49.830
30
0.0
0
VERTEX
10
187.598
20
51.343
30
0.0
0
VERTEX
10
191.767
20
52.902
30
0.0
0
VERTEX
10
195.936
20
54.508
30
0.0
0
VERTEX
10
200.104
20
56.163
30
0.0
0
VERTEX
10
204.273
20
57.868
30
0.0
0
VERTEX
10
204.273
20
57.868
30
0.0
0
VERTEX
10
208.634
20
58.869
30
0.0
0
VERTEX
10
212.995
20
59.887
30
0.0
0
VERTEX
10
217.356
20
60.923
30
0.0
0
VERTEX
10
221.717
20
61.976
30
0.0
0
VERTEX
10
226.077
20
63.048
30
0.0
0
VERTEX
10
230.438
20
64.138
30
0.0
0
VERTEX
10
234.799
20
65.248
30
0.0
0
VERTEX
10
239.160
20
66.376
30
0.0
0
VERTEX
10
243.521
20
67.524
30
0.0
0
VERTEX
10
247.882
20
68.692
30
0.0
0
VERTEX
10
252.243
20
69.879
30
0.0
0
VERTEX
10
256.603
20
71.088
30
0.0
0
VERTEX
10
260.964
20
72.317
30
0.0
0
VERTEX
10
265.325
20
73.568
30
0.0
0
VERTEX
10
269.686
20
74.840
30
0.0
0
VERTEX
10
274.047
20
76.135
30
0.0
0
VERTEX
10
278.408
20
77.451
30
0.0
0
VERTEX
10
282.768
20
78.791
30
0.0
0
VERTEX
10
287.129
20
80.153
30
0.0
0
VERTEX
10
291.490
20
81.539
30
0.0
0
VERTEX
10
295.851
20
82.949
30
0.0
0
VERTEX
10
300.212
20
84.384
30
0.0
0
VERTEX
10
304.573
20
85.843
30
0.0
0
VERTEX
10
308.933
20
87.328
30
0.0
0
VERTEX
10
313.294
20
88.838
30
0.0
0
VERTEX
10
317.655
20
90.374
30
0.0
0
VERTEX
10
322.016
20
91.937
30
0.0
0
VERTEX
10
326.377
20
93.527
30
0.0
0
VERTEX
10
330.738
20
95.145
30
0.0
0
VERTEX
10
335.099
20
96.790
30
0.0
0
VERTEX
10
339.459
20
98.464
30
0.0
0
VERTEX
10
343.820
20
100.167
30
0.0
0
VERTEX
10
348.181
20
101.899
30
0.0
0
VERTEX
10
352.542
20
103.661
30
0.0
0
VERTEX
10
356.903
20
105.454
30
0.0
0
VERTEX
10
361.264
20
107.277
30
0.0
0
VERTEX
10
365.624
20
109.133
30
0.0
0
VERTEX
10
369.985
20
111.020
30
0.0
0
VERTEX
10
374.346
20
112.940
30
0.0
0
VERTEX
10
378.707
20
114.893
30
0.0
0
VERTEX
10
383.068
20
116.880
30
0.0
0
VERTEX
10
387.429
20
118.901
30
0.0
0
VERTEX
10
391.790
20
120.958
30
0.0
0
VERTEX
10
396.150
20
123.049
30
0.0
0
VERTEX
10
400.511
20
125.177
30
0.0
0
VERTEX
10
404.872
20
127.342
30
0.0
0
VERTEX
10
409.233
20
129.544
30
0.0
0
VERTEX
10
413.594
20
131.785
30
0.0
0
VERTEX
10
417.955
20
134.064
30
0.0
0
SEQEND
0
LINE
8
0
10
0.0
20
0.0
30
0.0
11
468.0
21
0.0
31
0.0
0
TEXT
8
0
10
0.0
20
214.1
30
0.0
40
5.0
1
BC_DE250 Horn Profile
0
TEXT
8
0
10
0.0
20
204.1
30
0.0
40
3.0
1
Revolve around x-axis for 3D horn
0
ENDSEC
0
EOF
